<?xml version="1.0" encoding="UTF-8"?>
<svg xmlns="http://www.w3.org/2000/svg" xmlns:xlink="http://www.w3.org/1999/xlink" width="0" height="0">
<symbol id="plyr-muted" width="101" height="33" viewBox="0 0 101 33" fill="none"><rect width="100.918" height="32.784" rx="16.392"/><path d="M16 20.592L19.42 12.192H21.064L24.496 20.592H22.78L22.012 18.684H18.484L17.716 20.592H16ZM19.084 17.232H21.412L20.248 14.352L19.084 17.232Z"/><path d="M29.2129 20.784C28.5009 20.784 27.8729 20.66 27.3289 20.412C26.7929 20.164 26.3769 19.816 26.0809 19.368C25.7849 18.912 25.6369 18.396 25.6369 17.82V12.192H27.2929V17.772C27.2929 18.084 27.3729 18.356 27.5329 18.588C27.6929 18.812 27.9169 18.984 28.2049 19.104C28.4929 19.224 28.8249 19.284 29.2009 19.284C29.5769 19.284 29.9089 19.224 30.1969 19.104C30.4929 18.984 30.7209 18.812 30.8809 18.588C31.0409 18.356 31.1209 18.084 31.1209 17.772V12.192H32.7769V17.82C32.7769 18.388 32.6289 18.896 32.3329 19.344C32.0449 19.792 31.6329 20.144 31.0969 20.4C30.5609 20.656 29.9329 20.784 29.2129 20.784Z"/><path d="M34.8985 20.592V12.192H37.9705C38.8025 12.192 39.5425 12.368 40.1905 12.72C40.8465 13.072 41.3585 13.564 41.7265 14.196C42.0945 14.82 42.2785 15.536 42.2785 16.344C42.2785 17.168 42.0945 17.904 41.7265 18.552C41.3585 19.192 40.8465 19.692 40.1905 20.052C39.5425 20.412 38.8025 20.592 37.9705 20.592H34.8985ZM38.0785 19.104C38.5585 19.104 38.9865 18.988 39.3625 18.756C39.7465 18.524 40.0425 18.2 40.2505 17.784C40.4585 17.36 40.5625 16.88 40.5625 16.344C40.5625 15.832 40.4585 15.376 40.2505 14.976C40.0425 14.568 39.7465 14.248 39.3625 14.016C38.9865 13.784 38.5585 13.668 38.0785 13.668H36.5545V19.104H38.0785Z"/><path d="M44.0766 20.592V12.192H45.7326V20.592H44.0766Z"/><path d="M51.7987 20.784C50.9667 20.784 50.2267 20.604 49.5787 20.244C48.9387 19.884 48.4387 19.368 48.0787 18.696C47.7187 18.024 47.5387 17.248 47.5387 16.368C47.5387 15.52 47.7107 14.764 48.0547 14.1C48.4067 13.436 48.9067 12.92 49.5547 12.552C50.2027 12.184 50.9507 12 51.7987 12C52.6387 12 53.3827 12.18 54.0307 12.54C54.6787 12.892 55.1827 13.4 55.5427 14.064C55.9027 14.728 56.0827 15.496 56.0827 16.368C56.0827 17.224 55.9067 17.988 55.5547 18.66C55.2027 19.324 54.7027 19.844 54.0547 20.22C53.4147 20.596 52.6627 20.784 51.7987 20.784ZM51.7987 19.308C52.3267 19.308 52.7867 19.188 53.1787 18.948C53.5787 18.7 53.8827 18.356 54.0907 17.916C54.2987 17.476 54.4027 16.96 54.4027 16.368C54.4027 15.784 54.2947 15.276 54.0787 14.844C53.8707 14.404 53.5707 14.068 53.1787 13.836C52.7867 13.596 52.3267 13.476 51.7987 13.476C51.2867 13.476 50.8347 13.596 50.4427 13.836C50.0507 14.068 49.7467 14.404 49.5307 14.844C49.3227 15.276 49.2187 15.784 49.2187 16.368C49.2187 16.96 49.3227 17.476 49.5307 17.916C49.7467 18.356 50.0507 18.7 50.4427 18.948C50.8347 19.188 51.2867 19.308 51.7987 19.308Z"/><path d="M64.9284 20.784C64.0964 20.784 63.3564 20.604 62.7084 20.244C62.0684 19.884 61.5684 19.368 61.2084 18.696C60.8484 18.024 60.6684 17.248 60.6684 16.368C60.6684 15.52 60.8404 14.764 61.1844 14.1C61.5364 13.436 62.0364 12.92 62.6844 12.552C63.3324 12.184 64.0804 12 64.9284 12C65.7684 12 66.5124 12.18 67.1604 12.54C67.8084 12.892 68.3124 13.4 68.6724 14.064C69.0324 14.728 69.2124 15.496 69.2124 16.368C69.2124 17.224 69.0364 17.988 68.6844 18.66C68.3324 19.324 67.8324 19.844 67.1844 20.22C66.5444 20.596 65.7924 20.784 64.9284 20.784ZM64.9284 19.308C65.4564 19.308 65.9164 19.188 66.3084 18.948C66.7084 18.7 67.0124 18.356 67.2204 17.916C67.4284 17.476 67.5324 16.96 67.5324 16.368C67.5324 15.784 67.4244 15.276 67.2084 14.844C67.0004 14.404 66.7004 14.068 66.3084 13.836C65.9164 13.596 65.4564 13.476 64.9284 13.476C64.4164 13.476 63.9644 13.596 63.5724 13.836C63.1804 14.068 62.8764 14.404 62.6604 14.844C62.4524 15.276 62.3484 15.784 62.3484 16.368C62.3484 16.96 62.4524 17.476 62.6604 17.916C62.8764 18.356 63.1804 18.7 63.5724 18.948C63.9644 19.188 64.4164 19.308 64.9284 19.308Z"/><path d="M71.0157 20.592V12.192H77.0877V13.668H72.6717V15.792H76.7877V17.28H72.6717V20.592H71.0157Z"/><path d="M78.8462 20.592V12.192H84.9182V13.668H80.5022V15.792H84.6182V17.28H80.5022V20.592H78.8462Z"/></symbol><symbol id="plyr-volume" width="95" height="33" viewBox="0 0 95 33" fill="none"><rect width="94.3237" height="32.784" rx="16.392"/><path d="M16 20.592L19.42 12.192H21.064L24.496 20.592H22.78L22.012 18.684H18.484L17.716 20.592H16ZM19.084 17.232H21.412L20.248 14.352L19.084 17.232Z"/><path d="M29.2129 20.784C28.5009 20.784 27.8729 20.66 27.3289 20.412C26.7929 20.164 26.3769 19.816 26.0809 19.368C25.7849 18.912 25.6369 18.396 25.6369 17.82V12.192H27.2929V17.772C27.2929 18.084 27.3729 18.356 27.5329 18.588C27.6929 18.812 27.9169 18.984 28.2049 19.104C28.4929 19.224 28.8249 19.284 29.2009 19.284C29.5769 19.284 29.9089 19.224 30.1969 19.104C30.4929 18.984 30.7209 18.812 30.8809 18.588C31.0409 18.356 31.1209 18.084 31.1209 17.772V12.192H32.7769V17.82C32.7769 18.388 32.6289 18.896 32.3329 19.344C32.0449 19.792 31.6329 20.144 31.0969 20.4C30.5609 20.656 29.9329 20.784 29.2129 20.784Z"/><path d="M34.8985 20.592V12.192H37.9705C38.8025 12.192 39.5425 12.368 40.1905 12.72C40.8465 13.072 41.3585 13.564 41.7265 14.196C42.0945 14.82 42.2785 15.536 42.2785 16.344C42.2785 17.168 42.0945 17.904 41.7265 18.552C41.3585 19.192 40.8465 19.692 40.1905 20.052C39.5425 20.412 38.8025 20.592 37.9705 20.592H34.8985ZM38.0785 19.104C38.5585 19.104 38.9865 18.988 39.3625 18.756C39.7465 18.524 40.0425 18.2 40.2505 17.784C40.4585 17.36 40.5625 16.88 40.5625 16.344C40.5625 15.832 40.4585 15.376 40.2505 14.976C40.0425 14.568 39.7465 14.248 39.3625 14.016C38.9865 13.784 38.5585 13.668 38.0785 13.668H36.5545V19.104H38.0785Z"/><path d="M44.0766 20.592V12.192H45.7326V20.592H44.0766Z"/><path d="M51.7987 20.784C50.9667 20.784 50.2267 20.604 49.5787 20.244C48.9387 19.884 48.4387 19.368 48.0787 18.696C47.7187 18.024 47.5387 17.248 47.5387 16.368C47.5387 15.52 47.7107 14.764 48.0547 14.1C48.4067 13.436 48.9067 12.92 49.5547 12.552C50.2027 12.184 50.9507 12 51.7987 12C52.6387 12 53.3827 12.18 54.0307 12.54C54.6787 12.892 55.1827 13.4 55.5427 14.064C55.9027 14.728 56.0827 15.496 56.0827 16.368C56.0827 17.224 55.9067 17.988 55.5547 18.66C55.2027 19.324 54.7027 19.844 54.0547 20.22C53.4147 20.596 52.6627 20.784 51.7987 20.784ZM51.7987 19.308C52.3267 19.308 52.7867 19.188 53.1787 18.948C53.5787 18.7 53.8827 18.356 54.0907 17.916C54.2987 17.476 54.4027 16.96 54.4027 16.368C54.4027 15.784 54.2947 15.276 54.0787 14.844C53.8707 14.404 53.5707 14.068 53.1787 13.836C52.7867 13.596 52.3267 13.476 51.7987 13.476C51.2867 13.476 50.8347 13.596 50.4427 13.836C50.0507 14.068 49.7467 14.404 49.5307 14.844C49.3227 15.276 49.2187 15.784 49.2187 16.368C49.2187 16.96 49.3227 17.476 49.5307 17.916C49.7467 18.356 50.0507 18.7 50.4427 18.948C50.8347 19.188 51.2867 19.308 51.7987 19.308Z"/><path d="M64.9284 20.784C64.0964 20.784 63.3564 20.604 62.7084 20.244C62.0684 19.884 61.5684 19.368 61.2084 18.696C60.8484 18.024 60.6684 17.248 60.6684 16.368C60.6684 15.52 60.8404 14.764 61.1844 14.1C61.5364 13.436 62.0364 12.92 62.6844 12.552C63.3324 12.184 64.0804 12 64.9284 12C65.7684 12 66.5124 12.18 67.1604 12.54C67.8084 12.892 68.3124 13.4 68.6724 14.064C69.0324 14.728 69.2124 15.496 69.2124 16.368C69.2124 17.224 69.0364 17.988 68.6844 18.66C68.3324 19.324 67.8324 19.844 67.1844 20.22C66.5444 20.596 65.7924 20.784 64.9284 20.784ZM64.9284 19.308C65.4564 19.308 65.9164 19.188 66.3084 18.948C66.7084 18.7 67.0124 18.356 67.2204 17.916C67.4284 17.476 67.5324 16.96 67.5324 16.368C67.5324 15.784 67.4244 15.276 67.2084 14.844C67.0004 14.404 66.7004 14.068 66.3084 13.836C65.9164 13.596 65.4564 13.476 64.9284 13.476C64.4164 13.476 63.9644 13.596 63.5724 13.836C63.1804 14.068 62.8764 14.404 62.6604 14.844C62.4524 15.276 62.3484 15.784 62.3484 16.368C62.3484 16.96 62.4524 17.476 62.6604 17.916C62.8764 18.356 63.1804 18.7 63.5724 18.948C63.9644 19.188 64.4164 19.308 64.9284 19.308Z"/><path d="M71.0157 20.592V12.192H72.7917L76.6677 18.204V12.192H78.3237V20.592H76.5477L72.6717 14.58V20.592H71.0157Z"/></symbol><symbol id="plyr-pause" width="64" height="64" viewBox="0 0 64 64" fill="none"><rect x="2" y="2" width="60" height="60" rx="30"/><rect x="2" y="2" width="60" height="60" rx="30" stroke-width="4"/><path fill-rule="evenodd" clip-rule="evenodd" d="M21.5 44L21.5 20L27.5 20L27.5 44L21.5 44Z"/><path fill-rule="evenodd" clip-rule="evenodd" d="M36.5 44L36.5 20L42.5 20L42.5 44L36.5 44Z"/></symbol><symbol id="plyr-play" width="64" height="64" viewBox="0 0 64 64" fill="none"><rect x="2" y="2" width="60" height="60" rx="30"/><rect x="2" y="2" width="60" height="60" rx="30" stroke-width="4"/><path d="M25.875 21.3912L44.25 32L25.875 42.6088L25.875 21.3912Z" stroke-width="4"/></symbol></svg>